# 3ds Max Wavefront OBJ Exporter v0.99 - (c)2007 guruware
# File Created: 06.03.2022 11:23:52

mtllib Text.mtl

#
# object TextPlus001
#

v  -3.804180 -5.843933 -0.584530
v  -1.679180 -5.843933 -0.584530
v  -1.679180 8.241974 0.465647
v  3.595819 8.241974 0.465647
v  3.595819 10.136715 0.606910
v  -9.079181 10.136715 0.606910
v  -9.079181 8.241974 0.465647
v  -3.804180 8.241974 0.465647
v  -3.804180 -5.843858 -0.585527
v  -1.679180 -5.843858 -0.585527
v  -1.679180 8.242048 0.464650
v  3.595819 8.242048 0.464650
v  3.595819 10.136789 0.605913
v  -9.079181 10.136789 0.605913
v  -9.079181 8.242048 0.464650
v  -3.804180 8.242048 0.464650
v  10.339962 -5.843933 -0.584530
v  12.555195 -5.843933 -0.584530
v  18.812618 10.136715 0.606910
v  16.645821 10.136715 0.606910
v  12.321213 -1.470523 -0.258470
v  12.160741 -1.906542 -0.290977
v  12.006931 -2.342539 -0.323483
v  11.859785 -2.778514 -0.355987
v  11.719299 -3.214468 -0.388490
v  11.585478 -3.650400 -0.420991
v  11.458321 -4.086311 -0.453490
v  11.340623 -3.674530 -0.422790
v  11.213833 -3.253076 -0.391368
v  11.077950 -2.821948 -0.359226
v  10.932973 -2.381147 -0.326362
v  10.778904 -1.930672 -0.292776
v  10.615742 -1.470523 -0.258470
v  6.445820 10.136715 0.606910
v  4.148163 10.136715 0.606910
v  10.339962 -5.843858 -0.585527
v  12.555195 -5.843858 -0.585527
v  18.812618 10.136789 0.605913
v  16.645821 10.136789 0.605913
v  12.321213 -1.470449 -0.259467
v  12.160741 -1.906467 -0.291975
v  12.006931 -2.342464 -0.324480
v  11.859785 -2.778440 -0.356985
v  11.719299 -3.214393 -0.389487
v  11.585478 -3.650326 -0.421988
v  11.458321 -4.086236 -0.454488
v  11.340623 -3.674456 -0.423787
v  11.213833 -3.253002 -0.392366
v  11.077950 -2.821874 -0.360223
v  10.932973 -2.381072 -0.327359
v  10.778904 -1.930597 -0.293774
v  10.615742 -1.470449 -0.259467
v  6.445820 10.136789 0.605913
v  4.148163 10.136789 0.605913
# 54 vertices

vn -0.577350 -0.618678 0.532827
vn -0.577350 -0.532827 -0.618678
vn 0.577350 -0.532827 -0.618678
vn 0.577350 -0.618678 0.532827
vn 0.301511 -0.233426 -0.924448
vn 0.301511 -0.367928 0.879614
vn 0.577350 0.618678 -0.532827
vn 0.577350 0.532827 0.618678
vn -0.577350 0.618678 -0.532827
vn -0.577350 0.532827 0.618678
vn -0.301511 -0.233426 -0.924448
vn -0.301511 -0.367928 0.879614
vn -0.452716 -0.702983 0.548509
vn -0.452716 -0.613875 -0.646688
vn 0.451441 -0.614514 -0.646973
vn 0.451441 -0.703657 0.548696
vn 0.683985 0.507560 -0.523973
vn 0.683985 0.424251 0.593444
vn -0.457287 0.700514 -0.547876
vn -0.457287 0.611528 0.645695
vn -0.663707 0.296959 -0.686519
vn -0.663707 0.191875 0.722964
vn -0.666858 0.291460 -0.685821
vn -0.666858 0.186540 0.721459
vn -0.670057 0.282435 -0.686480
vn -0.670057 0.177517 0.720771
vn -0.673161 0.273281 -0.687148
vn -0.673161 0.168365 0.720075
vn -0.676166 0.264000 -0.687826
vn -0.676166 0.159086 0.719369
vn -0.679066 0.254594 -0.688513
vn -0.679066 0.149683 0.718654
vn 0.002275 0.797714 0.603032
vn 0.002275 0.878316 -0.478075
vn 0.680152 0.250856 -0.688814
vn 0.680152 0.145941 0.718397
vn 0.677342 0.259929 -0.688219
vn 0.677342 0.155002 0.719154
vn 0.674567 0.268494 -0.687655
vn 0.674567 0.163556 0.719867
vn 0.671834 0.276589 -0.687123
vn 0.671834 0.171641 0.720540
vn 0.669149 0.284248 -0.686617
vn 0.669149 0.179289 0.721176
vn 0.666569 0.289135 -0.687086
vn 0.666569 0.184054 0.722365
vn 0.461467 0.698241 -0.547274
vn 0.461467 0.609368 0.644763
vn -0.683074 0.508730 -0.524026
vn -0.683074 0.425400 0.593670
# 50 vertex normals

o TextPlus001
g TextPlus001
usemtl 01___Default
s 1
f -54//-50 -46//-49 -45//-48 -53//-47 
s 4
f -53//-47 -45//-48 -44//-46 -52//-45 
s 2
f -52//-45 -44//-46 -43//-48 -51//-47 
s 4
f -51//-47 -43//-48 -42//-44 -50//-43 
s 2
f -50//-43 -42//-44 -41//-42 -49//-41 
s 4
f -49//-41 -41//-42 -40//-49 -48//-50 
s 2
f -48//-50 -40//-49 -39//-40 -47//-39 
s 4
f -47//-39 -39//-40 -46//-49 -54//-50 
s 512
f -49//-41 -48//-50 -47//-39 -50//-43 
f -52//-45 -51//-47 -50//-43 -47//-39 
f -53//-47 -52//-45 -47//-39 -54//-50 
f -41//-42 -42//-44 -39//-40 -40//-49 
f -44//-46 -39//-40 -42//-44 -43//-48 
f -45//-48 -46//-49 -39//-40 -44//-46 
s 1
f -38//-38 -19//-37 -18//-36 -37//-35 
s 4
f -37//-35 -18//-36 -17//-34 -36//-33 
s 2
f -36//-33 -17//-34 -16//-32 -35//-31 
s 4
f -35//-31 -16//-32 -15//-30 -34//-29 
s 2
f -34//-29 -15//-30 -14//-28 -33//-27 
f -33//-27 -14//-28 -13//-26 -32//-25 
f -32//-25 -13//-26 -12//-24 -31//-23 
f -31//-23 -12//-24 -11//-22 -30//-21 
f -30//-21 -11//-22 -10//-20 -29//-19 
f -29//-19 -10//-20 -9//-18 -28//-17 
s 4
f -28//-17 -9//-18 -8//-16 -27//-15 
f -27//-15 -8//-16 -7//-14 -26//-13 
f -26//-13 -7//-14 -6//-12 -25//-11 
f -25//-11 -6//-12 -5//-10 -24//-9 
f -24//-9 -5//-10 -4//-8 -23//-7 
f -23//-7 -4//-8 -3//-6 -22//-5 
s 2
f -22//-5 -3//-6 -2//-4 -21//-3 
s 4
f -21//-3 -2//-4 -1//-2 -20//-1 
s 2
f -20//-1 -1//-2 -19//-37 -38//-38 
s 512
f -37//-35 -36//-33 -35//-31 -34//-29 
f -37//-35 -34//-29 -33//-27 -32//-25 
f -37//-35 -32//-25 -31//-23 -30//-21 
f -37//-35 -30//-21 -29//-19 -28//-17 
f -38//-38 -37//-35 -28//-17 -20//-1 
f -20//-1 -28//-17 -27//-15 -26//-13 
f -20//-1 -26//-13 -25//-11 -24//-9 
f -20//-1 -24//-9 -23//-7 -22//-5 
f -20//-1 -22//-5 -21//-3 
f -18//-36 -15//-30 -16//-32 -17//-34 
f -18//-36 -13//-26 -14//-28 -15//-30 
f -18//-36 -11//-22 -12//-24 -13//-26 
f -18//-36 -9//-18 -10//-20 -11//-22 
f -19//-37 -1//-2 -9//-18 -18//-36 
f -1//-2 -7//-14 -8//-16 -9//-18 
f -1//-2 -5//-10 -6//-12 -7//-14 
f -1//-2 -3//-6 -4//-8 -5//-10 
f -1//-2 -2//-4 -3//-6 
# 49 polygons - 2 triangles

